<?xml version="1.0" encoding="utf-8"?>
<!-- Generator: Adobe Illustrator 24.1.2, SVG Export Plug-In . SVG Version: 6.00 Build 0)  -->
<svg version="1.1" id="Layer_1" xmlns="http://www.w3.org/2000/svg" xmlns:xlink="http://www.w3.org/1999/xlink" x="0px" y="0px"
	 viewBox="0 0 595.3 198.4" style="enable-background:new 0 0 595.3 198.4;" xml:space="preserve">
<style type="text/css">
	.st0{fill:#FFFFFF;}
</style>
<g>
	<path class="st0" d="M264.7,69.9c5.7,0,10.5,0.7,14.3,2.1c3.9,1.4,7,3.4,9.3,6c2.3,2.6,4,5.7,5,9.3c1,3.6,1.5,7.6,1.5,12v45
		c-2.6,0.6-6.6,1.3-12,2.1c-5.3,0.8-11.4,1.2-18.1,1.2c-4.4,0-8.5-0.4-12.2-1.3c-3.7-0.8-6.8-2.2-9.4-4.1c-2.6-1.9-4.6-4.4-6.1-7.4
		c-1.5-3-2.2-6.8-2.2-11.2c0-4.3,0.8-7.8,2.5-10.8c1.7-2.9,3.9-5.3,6.7-7.2c2.8-1.8,6.1-3.2,9.9-4c3.7-0.8,7.6-1.2,11.7-1.2
		c1.9,0,3.9,0.1,6,0.4c2.1,0.2,4.3,0.6,6.7,1.2v-2.8c0-2-0.2-3.9-0.7-5.7c-0.5-1.8-1.3-3.4-2.5-4.8c-1.2-1.4-2.7-2.4-4.7-3.2
		c-1.9-0.8-4.4-1.1-7.3-1.1c-4,0-7.6,0.3-10.9,0.9c-3.3,0.6-6,1.2-8.1,2l-2.1-13.9c2.2-0.8,5.3-1.5,9.5-2.3
		C255.5,70.3,259.9,69.9,264.7,69.9z M266.1,133.9c5.3,0,9.3-0.3,12.1-0.8v-19c-0.9-0.3-2.3-0.6-4.1-0.8c-1.8-0.3-3.8-0.4-6-0.4
		c-1.9,0-3.8,0.1-5.7,0.4c-1.9,0.3-3.7,0.8-5.2,1.6c-1.6,0.8-2.8,1.8-3.8,3.2c-0.9,1.4-1.4,3.1-1.4,5.2c0,4.1,1.3,6.9,3.8,8.4
		C258.3,133.1,261.7,133.9,266.1,133.9z"/>
	<path class="st0" d="M332.1,50.1c0,3.2-1,5.8-3.1,7.7c-2.1,1.9-4.5,2.8-7.4,2.8c-2.9,0-5.4-0.9-7.5-2.8c-2.1-1.9-3.1-4.4-3.1-7.7
		c0-3.3,1-5.9,3.1-7.8c2.1-1.9,4.6-2.8,7.5-2.8c2.8,0,5.3,0.9,7.4,2.8C331,44.2,332.1,46.8,332.1,50.1z M330.2,146H313V71.8h17.2
		V146z"/>
	<path class="st0" d="M371.2,146c-4.7-9.7-9.6-20.9-14.6-33.6c-5-12.6-9.5-26.2-13.6-40.6h18.3c1,4.2,2.3,8.6,3.6,13.4
		c1.4,4.8,2.8,9.6,4.4,14.3c1.6,4.8,3.2,9.4,4.8,13.9c1.7,4.5,3.2,8.5,4.6,12.1c1.4-3.6,2.9-7.6,4.6-12.1c1.6-4.5,3.2-9.1,4.8-13.9
		c1.6-4.8,3.1-9.6,4.5-14.3c1.4-4.8,2.7-9.2,3.7-13.4h17.7c-4.1,14.5-8.6,28-13.6,40.6c-5,12.6-9.9,23.8-14.6,33.6H371.2z"/>
	<path class="st0" d="M418,109.2c0-6.5,1-12.2,2.9-17.2c1.9-4.9,4.5-9,7.7-12.3c3.2-3.3,6.9-5.7,11.1-7.4c4.2-1.7,8.4-2.5,12.8-2.5
		c10.2,0,18.2,3.2,23.9,9.5c5.7,6.3,8.6,15.8,8.6,28.4c0,0.9,0,2-0.1,3.2c0,1.2-0.1,2.2-0.2,3.2h-48.9c0.5,6,2.6,10.6,6.3,13.8
		c3.7,3.3,9.2,4.9,16.2,4.9c4.2,0,8-0.4,11.4-1.1c3.5-0.8,6.2-1.6,8.2-2.4l2.3,14c-0.9,0.5-2.2,1-3.9,1.5c-1.7,0.5-3.5,1-5.7,1.4
		c-2.1,0.4-4.4,0.8-6.9,1.1c-2.5,0.3-5,0.4-7.5,0.4c-6.5,0-12.2-1-17-2.9c-4.8-1.9-8.8-4.6-11.9-8.1c-3.1-3.5-5.4-7.5-7-12.2
		C418.8,119.9,418,114.8,418,109.2z M467.8,101.6c0-2.4-0.3-4.6-1-6.7c-0.7-2.1-1.6-4-2.9-5.5c-1.3-1.6-2.8-2.8-4.7-3.7
		c-1.8-0.9-4-1.3-6.6-1.3c-2.6,0-5,0.5-7,1.5c-2,1-3.7,2.3-5,3.9c-1.4,1.6-2.4,3.5-3.2,5.5c-0.8,2.1-1.3,4.2-1.6,6.4H467.8z"/>
	<path class="st0" d="M500.3,74.2c3.3-0.9,7.6-1.8,12.9-2.7c5.3-0.9,11.2-1.3,17.6-1.3c6.1,0,11.1,0.8,15.2,2.5c4.1,1.7,7.3,4,9.7,7
		c2.4,3,4.1,6.6,5.1,10.8c1,4.2,1.5,8.8,1.5,13.8V146h-17.2v-39c0-4-0.3-7.4-0.8-10.1c-0.5-2.8-1.4-5.1-2.6-6.8
		c-1.2-1.7-2.8-3-4.8-3.8c-2-0.8-4.5-1.2-7.4-1.2c-2.2,0-4.4,0.1-6.8,0.4c-2.4,0.3-4.1,0.5-5.2,0.7V146h-17.2V74.2z"/>
</g>
<g>
	<g>
		<path class="st0" d="M157.1,121.9c2.8,0,5.5,0.5,8,1.4c4-4.6,6.1-9.6,6.1-14.8c0-8.5-5.8-16.7-16.2-23.1
			c-11.2-6.8-26.2-10.6-42.1-10.6h0c-16,0-31,3.8-42.1,10.6c-10.5,6.4-16.2,14.6-16.2,23.1c0,5.2,2.1,10.2,6.1,14.8
			c2.5-0.9,5.2-1.4,8-1.4c6.3,0,12.2,2.4,16.6,6.9c3.1,3.1,5.2,6.9,6.2,11.1c6.7,1.6,13.9,2.4,21.4,2.4s14.6-0.8,21.4-2.4
			c1-4.1,3.1-8,6.2-11.1C144.9,124.4,150.8,121.9,157.1,121.9z M112.9,102.3c-7.2,0-13.1-5.9-13.1-13.1H126
			C126,96.4,120.1,102.3,112.9,102.3z"/>
	</g>
	<g>
		<path class="st0" d="M67.5,79.3c1.3-0.8,2.6-1.5,3.9-2.2l-0.1,0c-3.3-2.5-7.2-3.7-11.1-3.7c-5.6,0-11.1,2.5-14.7,7.3l-1.5,2.1
			l10.4,7.8C57.7,86.4,62.1,82.6,67.5,79.3z"/>
	</g>
	<g>
		<path class="st0" d="M54.6,126.6c-3.5-4.5-5.7-9.4-6.3-14.5c-0.2-1.2-0.3-2.4-0.3-3.6c0-6,2-11.7,5.7-16.9h-1.3
			C42.2,91.6,34,99.9,34,110v2.6l13.7,0c-3.6,3-5.9,7.1-6.5,11.7c-0.7,4.9,0.6,9.7,3.6,13.6l1.1,1.5c1-4,3.1-7.6,6.1-10.6
			C52.8,128,53.7,127.3,54.6,126.6z"/>
	</g>
	<g>
		<path class="st0" d="M171.3,90.6l10.4-7.8l-1.5-2.1c-3.6-4.8-9.1-7.3-14.7-7.3c-3.9,0-7.7,1.2-11.1,3.7l-0.1,0
			c1.3,0.7,2.7,1.4,3.9,2.2C163.7,82.6,168.1,86.4,171.3,90.6z"/>
	</g>
	<g>
		<path class="st0" d="M191.8,110c0-10.2-8.3-18.4-18.4-18.4H172c3.8,5.2,5.7,11,5.7,16.9c0,1.2-0.1,2.4-0.3,3.6
			c-0.7,5.1-2.9,10-6.3,14.5c0.9,0.7,1.8,1.4,2.6,2.2c3,3,5.1,6.6,6.1,10.6l1.1-1.5c3-3.9,4.3-8.8,3.6-13.6
			c-0.6-4.6-2.9-8.8-6.5-11.7l13.7,0V110z"/>
	</g>
	<g>
		<path class="st0" d="M90.7,70.6c10.2,0,18.4-8.3,18.4-18.4c0-10.2-8.3-18.4-18.4-18.4c-10.2,0-18.4,8.3-18.4,18.4
			C72.3,62.3,80.6,70.6,90.7,70.6z M90.7,42.1C90.7,42.1,90.8,42.1,90.7,42.1c-1.2,1.3-2,3.1-2,5.1c0,3.9,3.2,7.1,7.1,7.1
			c2,0,3.8-0.8,5.1-2.1c0,0,0,0.1,0,0.1c0,5.6-4.5,10.1-10.1,10.1c-5.6,0-10.1-4.5-10.1-10.1C80.6,46.6,85.1,42.1,90.7,42.1z"/>
	</g>
	<g>
		<path class="st0" d="M135,70.6c10.2,0,18.4-8.3,18.4-18.4c0-10.2-8.3-18.4-18.4-18.4c-10.2,0-18.4,8.3-18.4,18.4
			C116.6,62.3,124.9,70.6,135,70.6z M135,42.1C135.1,42.1,135.1,42.1,135,42.1c-1.2,1.3-2,3.1-2,5.1c0,3.9,3.2,7.1,7.1,7.1
			c2,0,3.8-0.8,5.1-2.1c0,0,0,0.1,0,0.1c0,5.6-4.5,10.1-10.1,10.1c-5.6,0-10.1-4.5-10.1-10.1C124.9,46.6,129.5,42.1,135,42.1z"/>
	</g>
	<g>
		<path class="st0" d="M68.7,127c-10.2,0-18.4,8.2-18.4,18.4c0,10.2,8.2,18.4,18.4,18.4c2.1,0,4.2-0.4,6.1-1.1
			c-0.2-0.2-0.4-0.3-0.5-0.5c-5.3-5.3-7.2-12.2-4-15.3c3.1-3.1,10-1.3,15.3,4c0.2,0.2,0.3,0.4,0.5,0.5c0.7-1.9,1.1-3.9,1.1-6.1
			C87.1,135.3,78.8,127,68.7,127z"/>
	</g>
	<g>
		<path class="st0" d="M157.1,127c-10.2,0-18.4,8.2-18.4,18.4c0,2.1,0.4,4.2,1.1,6.1c0.2-0.2,0.3-0.4,0.5-0.5
			c5.3-5.3,12.2-7.2,15.3-4c3.1,3.1,1.3,10-4,15.3c-0.2,0.2-0.3,0.3-0.5,0.5c1.9,0.7,3.9,1.1,6.1,1.1c10.2,0,18.4-8.2,18.4-18.4
			C175.5,135.3,167.3,127,157.1,127z"/>
	</g>
</g>
</svg>
